# xmcd CD database file
#
# Track frame offsets:
#	150
#	16554
#	31324
#	45882
#	60014
#	74443
#	88488
#	101635
#	115821
#	130463
#	144246
#	159232
#	174068
#	187500
#	201176
#
# Disc length: 2896 seconds
#
# Revision: 0
# Processed by: cddbd v1.5.2PL0 Copyright (c) Steve Scherf et al.
# Submitted via: CDex 1.51
#
DISCID=af0b4e0f
DTITLE=Tchê Garotos - Atitude
DYEAR=2007
DGENRE=Country
TTITLE0=Vamos fazer Festa
TTITLE1=Vem me dengar
TTITLE2=É problema meu
TTITLE3=Eu vou te amar
TTITLE4=Agora pode tudo
TTITLE5=Ela não me querer
TTITLE6=O Pau comeu
TTITLE7=Daniela
TTITLE8=E la que mora ela
TTITLE9=To com saudade
TTITLE10=Vida fugida
TTITLE11=Amor eterno
TTITLE12=Vivo por ai
TTITLE13=Mete chife nele
TTITLE14=Meninha(versão acustica)
EXTD=YEAR: 2007
EXTT0=
EXTT1=
EXTT2=
EXTT3=
EXTT4=
EXTT5=
EXTT6=
EXTT7=
EXTT8=
EXTT9=
EXTT10=
EXTT11=
EXTT12=
EXTT13=
EXTT14=
PLAYORDER=
